<mxfile modified="2021-11-11T04:35:49.369Z" host="app.diagrams.net" agent="5.0 (Macintosh; Intel Mac OS X 10_15_7) AppleWebKit/605.1.15 (KHTML, like Gecko) Version/14.1 Safari/605.1.15" etag="qavSZjRhBnWHsimMSLE8" version="15.7.3" type="github">
  <diagram id="f106602c-feb2-e66a-4537-3a34d633f6aa" name="Page-1">
    <mxGraphModel dx="1387" dy="1957" grid="1" gridSize="10" guides="1" tooltips="1" connect="1" arrows="1" fold="1" page="1" pageScale="1" pageWidth="1169" pageHeight="827" background="none" math="0" shadow="0">
      <root>
        <mxCell id="0" />
        <mxCell id="1" parent="0" />
        <mxCell id="707" value="拉新" style="rounded=1;absoluteArcSize=1;arcSize=2;html=1;strokeColor=none;gradientColor=none;shadow=0;dashed=0;strokeColor=none;fontSize=12;fontColor=#9E9E9E;align=left;verticalAlign=top;spacing=10;spacingTop=-4;fillColor=#F1F8E9;" parent="1" vertex="1">
          <mxGeometry x="120" y="271" width="120" height="100" as="geometry" />
        </mxCell>
        <mxCell id="ImsG6VLnodtmkn8iDG3J-823" style="edgeStyle=orthogonalEdgeStyle;rounded=0;orthogonalLoop=1;jettySize=auto;html=1;entryX=0.25;entryY=0;entryDx=0;entryDy=0;entryPerimeter=0;fontSize=14;" edge="1" parent="1" source="2" target="ImsG6VLnodtmkn8iDG3J-811">
          <mxGeometry relative="1" as="geometry">
            <Array as="points">
              <mxPoint x="610" y="219" />
              <mxPoint x="543" y="219" />
            </Array>
          </mxGeometry>
        </mxCell>
        <mxCell id="ImsG6VLnodtmkn8iDG3J-825" style="edgeStyle=orthogonalEdgeStyle;rounded=0;orthogonalLoop=1;jettySize=auto;html=1;fontSize=14;entryX=0.653;entryY=-0.04;entryDx=0;entryDy=0;entryPerimeter=0;" edge="1" parent="1" source="2" target="ImsG6VLnodtmkn8iDG3J-811">
          <mxGeometry relative="1" as="geometry">
            <mxPoint x="756" y="223" as="targetPoint" />
          </mxGeometry>
        </mxCell>
        <mxCell id="ImsG6VLnodtmkn8iDG3J-827" style="edgeStyle=orthogonalEdgeStyle;rounded=0;orthogonalLoop=1;jettySize=auto;html=1;entryX=0.872;entryY=-0.056;entryDx=0;entryDy=0;entryPerimeter=0;fontSize=14;" edge="1" parent="1" source="2" target="ImsG6VLnodtmkn8iDG3J-811">
          <mxGeometry relative="1" as="geometry" />
        </mxCell>
        <mxCell id="ImsG6VLnodtmkn8iDG3J-828" style="edgeStyle=orthogonalEdgeStyle;rounded=0;orthogonalLoop=1;jettySize=auto;html=1;fontSize=14;entryX=0.443;entryY=-0.008;entryDx=0;entryDy=0;entryPerimeter=0;" edge="1" parent="1" source="2" target="ImsG6VLnodtmkn8iDG3J-811">
          <mxGeometry relative="1" as="geometry">
            <mxPoint x="610" y="220" as="targetPoint" />
          </mxGeometry>
        </mxCell>
        <mxCell id="ImsG6VLnodtmkn8iDG3J-829" style="edgeStyle=orthogonalEdgeStyle;rounded=0;orthogonalLoop=1;jettySize=auto;html=1;entryX=0.5;entryY=0;entryDx=0;entryDy=0;entryPerimeter=0;fontSize=14;" edge="1" parent="1" source="2" target="ImsG6VLnodtmkn8iDG3J-796">
          <mxGeometry relative="1" as="geometry" />
        </mxCell>
        <mxCell id="2" value="Architecture: &amp;nbsp;embedding / &amp;nbsp;标签 / Data Warehouse" style="fillColor=#4DA1F5;strokeColor=none;shadow=1;gradientColor=none;fontSize=14;align=left;spacingLeft=50;fontColor=#ffffff;html=1;" parent="1" vertex="1">
          <mxGeometry x="280" y="150" width="660" height="40" as="geometry" />
        </mxCell>
        <mxCell id="ImsG6VLnodtmkn8iDG3J-730" style="edgeStyle=orthogonalEdgeStyle;rounded=0;orthogonalLoop=1;jettySize=auto;html=1;fillColor=#dae8fc;strokeColor=#6c8ebf;" edge="1" parent="1" source="ImsG6VLnodtmkn8iDG3J-719">
          <mxGeometry relative="1" as="geometry">
            <mxPoint x="320" y="-50" as="targetPoint" />
          </mxGeometry>
        </mxCell>
        <mxCell id="ImsG6VLnodtmkn8iDG3J-762" value="" style="edgeStyle=orthogonalEdgeStyle;rounded=0;orthogonalLoop=1;jettySize=auto;html=1;" edge="1" parent="1" source="ImsG6VLnodtmkn8iDG3J-719" target="ImsG6VLnodtmkn8iDG3J-736">
          <mxGeometry relative="1" as="geometry" />
        </mxCell>
        <mxCell id="ImsG6VLnodtmkn8iDG3J-719" value="小说" style="sketch=0;html=1;fillColor=#5184F3;strokeColor=none;verticalAlign=top;labelPosition=center;verticalLabelPosition=bottom;align=center;spacingTop=-6;fontSize=11;fontStyle=1;fontColor=#999999;shape=mxgraph.gcp2.hexIcon;prIcon=cloud_bigtable" vertex="1" parent="1">
          <mxGeometry x="520" y="-150" width="66" height="58.5" as="geometry" />
        </mxCell>
        <mxCell id="ImsG6VLnodtmkn8iDG3J-727" style="edgeStyle=orthogonalEdgeStyle;rounded=0;orthogonalLoop=1;jettySize=auto;html=1;fillColor=#dae8fc;strokeColor=#6c8ebf;" edge="1" parent="1" source="ImsG6VLnodtmkn8iDG3J-722">
          <mxGeometry relative="1" as="geometry">
            <mxPoint x="346" y="-50" as="targetPoint" />
          </mxGeometry>
        </mxCell>
        <mxCell id="ImsG6VLnodtmkn8iDG3J-763" value="" style="edgeStyle=orthogonalEdgeStyle;rounded=0;orthogonalLoop=1;jettySize=auto;html=1;" edge="1" parent="1" source="ImsG6VLnodtmkn8iDG3J-722" target="ImsG6VLnodtmkn8iDG3J-738">
          <mxGeometry relative="1" as="geometry" />
        </mxCell>
        <mxCell id="ImsG6VLnodtmkn8iDG3J-722" value="搜索" style="sketch=0;html=1;fillColor=#5184F3;strokeColor=none;verticalAlign=top;labelPosition=center;verticalLabelPosition=bottom;align=center;spacingTop=-6;fontSize=11;fontStyle=1;fontColor=#999999;shape=mxgraph.gcp2.hexIcon;prIcon=cloud_bigtable" vertex="1" parent="1">
          <mxGeometry x="620" y="-150" width="66" height="58.5" as="geometry" />
        </mxCell>
        <mxCell id="ImsG6VLnodtmkn8iDG3J-728" style="edgeStyle=orthogonalEdgeStyle;rounded=0;orthogonalLoop=1;jettySize=auto;html=1;fillColor=#dae8fc;strokeColor=#6c8ebf;" edge="1" parent="1" source="ImsG6VLnodtmkn8iDG3J-723">
          <mxGeometry relative="1" as="geometry">
            <mxPoint x="373" y="-50" as="targetPoint" />
          </mxGeometry>
        </mxCell>
        <mxCell id="ImsG6VLnodtmkn8iDG3J-764" value="" style="edgeStyle=orthogonalEdgeStyle;rounded=0;orthogonalLoop=1;jettySize=auto;html=1;" edge="1" parent="1" source="ImsG6VLnodtmkn8iDG3J-723" target="ImsG6VLnodtmkn8iDG3J-740">
          <mxGeometry relative="1" as="geometry" />
        </mxCell>
        <mxCell id="ImsG6VLnodtmkn8iDG3J-723" value="信息流" style="sketch=0;html=1;fillColor=#5184F3;strokeColor=none;verticalAlign=top;labelPosition=center;verticalLabelPosition=bottom;align=center;spacingTop=-6;fontSize=11;fontStyle=1;fontColor=#999999;shape=mxgraph.gcp2.hexIcon;prIcon=cloud_bigtable" vertex="1" parent="1">
          <mxGeometry x="720" y="-150" width="66" height="58.5" as="geometry" />
        </mxCell>
        <mxCell id="ImsG6VLnodtmkn8iDG3J-729" style="edgeStyle=orthogonalEdgeStyle;rounded=0;orthogonalLoop=1;jettySize=auto;html=1;fillColor=#dae8fc;strokeColor=#6c8ebf;" edge="1" parent="1" source="ImsG6VLnodtmkn8iDG3J-724">
          <mxGeometry relative="1" as="geometry">
            <mxPoint x="400" y="-50" as="targetPoint" />
          </mxGeometry>
        </mxCell>
        <mxCell id="ImsG6VLnodtmkn8iDG3J-765" value="" style="edgeStyle=orthogonalEdgeStyle;rounded=0;orthogonalLoop=1;jettySize=auto;html=1;" edge="1" parent="1" source="ImsG6VLnodtmkn8iDG3J-724" target="ImsG6VLnodtmkn8iDG3J-742">
          <mxGeometry relative="1" as="geometry" />
        </mxCell>
        <mxCell id="ImsG6VLnodtmkn8iDG3J-724" value="新闻" style="sketch=0;html=1;fillColor=#5184F3;strokeColor=none;verticalAlign=top;labelPosition=center;verticalLabelPosition=bottom;align=center;spacingTop=-6;fontSize=11;fontStyle=1;fontColor=#999999;shape=mxgraph.gcp2.hexIcon;prIcon=cloud_bigtable" vertex="1" parent="1">
          <mxGeometry x="825" y="-150" width="66" height="58.5" as="geometry" />
        </mxCell>
        <mxCell id="ImsG6VLnodtmkn8iDG3J-772" value="" style="edgeStyle=orthogonalEdgeStyle;rounded=0;orthogonalLoop=1;jettySize=auto;html=1;" edge="1" parent="1" source="ImsG6VLnodtmkn8iDG3J-725" target="ImsG6VLnodtmkn8iDG3J-746">
          <mxGeometry relative="1" as="geometry" />
        </mxCell>
        <mxCell id="ImsG6VLnodtmkn8iDG3J-725" value="合并的行为序列集合" style="fillColor=#4DA1F5;strokeColor=none;shadow=1;gradientColor=none;fontSize=14;align=left;spacingLeft=50;fontColor=#ffffff;html=1;" vertex="1" parent="1">
          <mxGeometry x="260" y="-40" width="205" height="40" as="geometry" />
        </mxCell>
        <mxCell id="ImsG6VLnodtmkn8iDG3J-766" value="" style="edgeStyle=orthogonalEdgeStyle;rounded=0;orthogonalLoop=1;jettySize=auto;html=1;" edge="1" parent="1" source="ImsG6VLnodtmkn8iDG3J-736" target="ImsG6VLnodtmkn8iDG3J-760">
          <mxGeometry relative="1" as="geometry" />
        </mxCell>
        <mxCell id="ImsG6VLnodtmkn8iDG3J-736" value="内容/运营/产品" style="strokeColor=#dddddd;shadow=1;strokeWidth=1;rounded=1;absoluteArcSize=1;arcSize=2;labelPosition=center;verticalLabelPosition=middle;align=center;verticalAlign=bottom;spacingLeft=0;fontColor=#999999;fontSize=12;whiteSpace=wrap;spacingBottom=2;" vertex="1" parent="1">
          <mxGeometry x="518" y="-60" width="70" height="85" as="geometry" />
        </mxCell>
        <mxCell id="ImsG6VLnodtmkn8iDG3J-737" value="" style="sketch=0;dashed=0;connectable=0;html=1;fillColor=#757575;strokeColor=none;shape=mxgraph.gcp2.list;part=1;align=left;" vertex="1" parent="ImsG6VLnodtmkn8iDG3J-736">
          <mxGeometry x="0.5" width="44.5" height="50" relative="1" as="geometry">
            <mxPoint x="-22.25" y="10" as="offset" />
          </mxGeometry>
        </mxCell>
        <mxCell id="ImsG6VLnodtmkn8iDG3J-777" value="" style="edgeStyle=orthogonalEdgeStyle;rounded=0;orthogonalLoop=1;jettySize=auto;html=1;" edge="1" parent="1" source="ImsG6VLnodtmkn8iDG3J-738" target="ImsG6VLnodtmkn8iDG3J-773">
          <mxGeometry relative="1" as="geometry" />
        </mxCell>
        <mxCell id="ImsG6VLnodtmkn8iDG3J-738" value="搜索query" style="strokeColor=#dddddd;shadow=1;strokeWidth=1;rounded=1;absoluteArcSize=1;arcSize=2;labelPosition=center;verticalLabelPosition=middle;align=center;verticalAlign=bottom;spacingLeft=0;fontColor=#999999;fontSize=12;whiteSpace=wrap;spacingBottom=2;" vertex="1" parent="1">
          <mxGeometry x="618" y="-60" width="70" height="85" as="geometry" />
        </mxCell>
        <mxCell id="ImsG6VLnodtmkn8iDG3J-739" value="" style="sketch=0;dashed=0;connectable=0;html=1;fillColor=#757575;strokeColor=none;shape=mxgraph.gcp2.list;part=1;align=left;" vertex="1" parent="ImsG6VLnodtmkn8iDG3J-738">
          <mxGeometry x="0.5" width="44.5" height="50" relative="1" as="geometry">
            <mxPoint x="-22.25" y="10" as="offset" />
          </mxGeometry>
        </mxCell>
        <mxCell id="ImsG6VLnodtmkn8iDG3J-768" value="" style="edgeStyle=orthogonalEdgeStyle;rounded=0;orthogonalLoop=1;jettySize=auto;html=1;" edge="1" parent="1" source="ImsG6VLnodtmkn8iDG3J-740">
          <mxGeometry relative="1" as="geometry">
            <mxPoint x="770" y="60" as="targetPoint" />
          </mxGeometry>
        </mxCell>
        <mxCell id="ImsG6VLnodtmkn8iDG3J-740" value="内容/运营" style="strokeColor=#dddddd;shadow=1;strokeWidth=1;rounded=1;absoluteArcSize=1;arcSize=2;labelPosition=center;verticalLabelPosition=middle;align=center;verticalAlign=bottom;spacingLeft=0;fontColor=#999999;fontSize=12;whiteSpace=wrap;spacingBottom=2;" vertex="1" parent="1">
          <mxGeometry x="718" y="-60" width="70" height="85" as="geometry" />
        </mxCell>
        <mxCell id="ImsG6VLnodtmkn8iDG3J-741" value="" style="sketch=0;dashed=0;connectable=0;html=1;fillColor=#757575;strokeColor=none;shape=mxgraph.gcp2.list;part=1;align=left;" vertex="1" parent="ImsG6VLnodtmkn8iDG3J-740">
          <mxGeometry x="0.5" width="44.5" height="50" relative="1" as="geometry">
            <mxPoint x="-22.25" y="10" as="offset" />
          </mxGeometry>
        </mxCell>
        <mxCell id="ImsG6VLnodtmkn8iDG3J-771" style="edgeStyle=orthogonalEdgeStyle;rounded=0;orthogonalLoop=1;jettySize=auto;html=1;entryX=0.35;entryY=-0.06;entryDx=0;entryDy=0;entryPerimeter=0;" edge="1" parent="1" source="ImsG6VLnodtmkn8iDG3J-742" target="ImsG6VLnodtmkn8iDG3J-754">
          <mxGeometry relative="1" as="geometry" />
        </mxCell>
        <mxCell id="ImsG6VLnodtmkn8iDG3J-742" value="内容/运营" style="strokeColor=#dddddd;shadow=1;strokeWidth=1;rounded=1;absoluteArcSize=1;arcSize=2;labelPosition=center;verticalLabelPosition=middle;align=center;verticalAlign=bottom;spacingLeft=0;fontColor=#999999;fontSize=12;whiteSpace=wrap;spacingBottom=2;" vertex="1" parent="1">
          <mxGeometry x="823" y="-60" width="70" height="85" as="geometry" />
        </mxCell>
        <mxCell id="ImsG6VLnodtmkn8iDG3J-743" value="" style="sketch=0;dashed=0;connectable=0;html=1;fillColor=#757575;strokeColor=none;shape=mxgraph.gcp2.list;part=1;align=left;" vertex="1" parent="ImsG6VLnodtmkn8iDG3J-742">
          <mxGeometry x="0.5" width="44.5" height="50" relative="1" as="geometry">
            <mxPoint x="-22.25" y="10" as="offset" />
          </mxGeometry>
        </mxCell>
        <mxCell id="ImsG6VLnodtmkn8iDG3J-791" value="" style="edgeStyle=orthogonalEdgeStyle;rounded=0;orthogonalLoop=1;jettySize=auto;html=1;" edge="1" parent="1" source="ImsG6VLnodtmkn8iDG3J-746" target="2">
          <mxGeometry relative="1" as="geometry" />
        </mxCell>
        <mxCell id="ImsG6VLnodtmkn8iDG3J-746" value="" style="shape=mxgraph.gcp2.doubleRect;strokeColor=#dddddd;shadow=1;strokeWidth=1;align=left;" vertex="1" parent="1">
          <mxGeometry x="290" y="60" width="100" height="50" as="geometry" />
        </mxCell>
        <mxCell id="ImsG6VLnodtmkn8iDG3J-747" value="&lt;font color=&quot;#000000&quot;&gt;&lt;span&gt;embedding&lt;/span&gt;&lt;/font&gt;&lt;br&gt;Cloud Dataprep" style="sketch=0;dashed=0;connectable=0;html=1;fillColor=#5184F3;strokeColor=none;shape=mxgraph.gcp2.hexIcon;prIcon=cloud_dataprep;part=1;labelPosition=right;verticalLabelPosition=middle;align=left;verticalAlign=middle;spacingLeft=5;fontColor=#999999;fontSize=12;" vertex="1" parent="ImsG6VLnodtmkn8iDG3J-746">
          <mxGeometry y="0.5" width="44" height="39" relative="1" as="geometry">
            <mxPoint x="5" y="-19.5" as="offset" />
          </mxGeometry>
        </mxCell>
        <mxCell id="ImsG6VLnodtmkn8iDG3J-795" value="" style="edgeStyle=orthogonalEdgeStyle;rounded=0;orthogonalLoop=1;jettySize=auto;html=1;" edge="1" parent="1" source="ImsG6VLnodtmkn8iDG3J-754" target="2">
          <mxGeometry relative="1" as="geometry" />
        </mxCell>
        <mxCell id="ImsG6VLnodtmkn8iDG3J-754" value="" style="shape=mxgraph.gcp2.doubleRect;strokeColor=#dddddd;shadow=1;strokeWidth=1;align=left;" vertex="1" parent="1">
          <mxGeometry x="825" y="60" width="100" height="50" as="geometry" />
        </mxCell>
        <mxCell id="ImsG6VLnodtmkn8iDG3J-755" value="&lt;font color=&quot;#000000&quot;&gt;&lt;span&gt;embedding&lt;/span&gt;&lt;/font&gt;&lt;br&gt;Cloud Dataprep" style="sketch=0;dashed=0;connectable=0;html=1;fillColor=#5184F3;strokeColor=none;shape=mxgraph.gcp2.hexIcon;prIcon=cloud_dataprep;part=1;labelPosition=right;verticalLabelPosition=middle;align=left;verticalAlign=middle;spacingLeft=5;fontColor=#999999;fontSize=12;" vertex="1" parent="ImsG6VLnodtmkn8iDG3J-754">
          <mxGeometry y="0.5" width="44" height="39" relative="1" as="geometry">
            <mxPoint x="5" y="-19.5" as="offset" />
          </mxGeometry>
        </mxCell>
        <mxCell id="ImsG6VLnodtmkn8iDG3J-792" value="" style="edgeStyle=orthogonalEdgeStyle;rounded=0;orthogonalLoop=1;jettySize=auto;html=1;" edge="1" parent="1" source="ImsG6VLnodtmkn8iDG3J-760" target="2">
          <mxGeometry relative="1" as="geometry" />
        </mxCell>
        <mxCell id="ImsG6VLnodtmkn8iDG3J-760" value="" style="shape=mxgraph.gcp2.doubleRect;strokeColor=#dddddd;shadow=1;strokeWidth=1;align=left;" vertex="1" parent="1">
          <mxGeometry x="480" y="60" width="100" height="50" as="geometry" />
        </mxCell>
        <mxCell id="ImsG6VLnodtmkn8iDG3J-761" value="&lt;font color=&quot;#000000&quot;&gt;&lt;span&gt;embedding&lt;/span&gt;&lt;/font&gt;&lt;br&gt;Cloud Dataprep" style="sketch=0;dashed=0;connectable=0;html=1;fillColor=#5184F3;strokeColor=none;shape=mxgraph.gcp2.hexIcon;prIcon=cloud_dataprep;part=1;labelPosition=right;verticalLabelPosition=middle;align=left;verticalAlign=middle;spacingLeft=5;fontColor=#999999;fontSize=12;" vertex="1" parent="ImsG6VLnodtmkn8iDG3J-760">
          <mxGeometry y="0.5" width="44" height="39" relative="1" as="geometry">
            <mxPoint x="5" y="-19.5" as="offset" />
          </mxGeometry>
        </mxCell>
        <mxCell id="ImsG6VLnodtmkn8iDG3J-793" value="" style="edgeStyle=orthogonalEdgeStyle;rounded=0;orthogonalLoop=1;jettySize=auto;html=1;" edge="1" parent="1" source="ImsG6VLnodtmkn8iDG3J-773" target="2">
          <mxGeometry relative="1" as="geometry" />
        </mxCell>
        <mxCell id="ImsG6VLnodtmkn8iDG3J-773" value="" style="shape=mxgraph.gcp2.doubleRect;strokeColor=#dddddd;shadow=1;strokeWidth=1;align=left;" vertex="1" parent="1">
          <mxGeometry x="603" y="60" width="100" height="50" as="geometry" />
        </mxCell>
        <mxCell id="ImsG6VLnodtmkn8iDG3J-774" value="&lt;font color=&quot;#000000&quot;&gt;&lt;span&gt;embedding&lt;/span&gt;&lt;/font&gt;&lt;br&gt;Cloud Dataprep" style="sketch=0;dashed=0;connectable=0;html=1;fillColor=#5184F3;strokeColor=none;shape=mxgraph.gcp2.hexIcon;prIcon=cloud_dataprep;part=1;labelPosition=right;verticalLabelPosition=middle;align=left;verticalAlign=middle;spacingLeft=5;fontColor=#999999;fontSize=12;" vertex="1" parent="ImsG6VLnodtmkn8iDG3J-773">
          <mxGeometry y="0.5" width="44" height="39" relative="1" as="geometry">
            <mxPoint x="5" y="-19.5" as="offset" />
          </mxGeometry>
        </mxCell>
        <mxCell id="ImsG6VLnodtmkn8iDG3J-794" value="" style="edgeStyle=orthogonalEdgeStyle;rounded=0;orthogonalLoop=1;jettySize=auto;html=1;" edge="1" parent="1" source="ImsG6VLnodtmkn8iDG3J-775" target="2">
          <mxGeometry relative="1" as="geometry" />
        </mxCell>
        <mxCell id="ImsG6VLnodtmkn8iDG3J-775" value="" style="shape=mxgraph.gcp2.doubleRect;strokeColor=#dddddd;shadow=1;strokeWidth=1;align=left;" vertex="1" parent="1">
          <mxGeometry x="712" y="60" width="100" height="50" as="geometry" />
        </mxCell>
        <mxCell id="ImsG6VLnodtmkn8iDG3J-776" value="&lt;font color=&quot;#000000&quot;&gt;&lt;span&gt;embedding&lt;/span&gt;&lt;/font&gt;&lt;br&gt;Cloud Dataprep" style="sketch=0;dashed=0;connectable=0;html=1;fillColor=#5184F3;strokeColor=none;shape=mxgraph.gcp2.hexIcon;prIcon=cloud_dataprep;part=1;labelPosition=right;verticalLabelPosition=middle;align=left;verticalAlign=middle;spacingLeft=5;fontColor=#999999;fontSize=12;" vertex="1" parent="ImsG6VLnodtmkn8iDG3J-775">
          <mxGeometry y="0.5" width="44" height="39" relative="1" as="geometry">
            <mxPoint x="5" y="-19.5" as="offset" />
          </mxGeometry>
        </mxCell>
        <mxCell id="ImsG6VLnodtmkn8iDG3J-866" style="edgeStyle=orthogonalEdgeStyle;rounded=0;orthogonalLoop=1;jettySize=auto;html=1;entryX=0;entryY=0.5;entryDx=0;entryDy=0;entryPerimeter=0;fontSize=14;" edge="1" parent="1" source="ImsG6VLnodtmkn8iDG3J-780" target="ImsG6VLnodtmkn8iDG3J-796">
          <mxGeometry relative="1" as="geometry" />
        </mxCell>
        <mxCell id="ImsG6VLnodtmkn8iDG3J-780" value="Users" style="strokeColor=#dddddd;shadow=1;strokeWidth=1;rounded=1;absoluteArcSize=1;arcSize=2;labelPosition=center;verticalLabelPosition=middle;align=center;verticalAlign=bottom;spacingLeft=0;fontColor=#999999;fontSize=12;whiteSpace=wrap;spacingBottom=2;" vertex="1" parent="1">
          <mxGeometry x="160" y="283.5" width="70" height="85" as="geometry" />
        </mxCell>
        <mxCell id="ImsG6VLnodtmkn8iDG3J-781" value="" style="sketch=0;dashed=0;connectable=0;html=1;fillColor=#757575;strokeColor=none;shape=mxgraph.gcp2.users;part=1;align=left;" vertex="1" parent="ImsG6VLnodtmkn8iDG3J-780">
          <mxGeometry x="0.5" width="50" height="31.5" relative="1" as="geometry">
            <mxPoint x="-25" y="19.25" as="offset" />
          </mxGeometry>
        </mxCell>
        <mxCell id="ImsG6VLnodtmkn8iDG3J-782" value="留存" style="rounded=1;absoluteArcSize=1;arcSize=2;html=1;strokeColor=none;gradientColor=none;shadow=0;dashed=0;strokeColor=none;fontSize=12;fontColor=#9E9E9E;align=left;verticalAlign=top;spacing=10;spacingTop=-4;fillColor=#F1F8E9;" vertex="1" parent="1">
          <mxGeometry x="120" y="416" width="120" height="110" as="geometry" />
        </mxCell>
        <mxCell id="ImsG6VLnodtmkn8iDG3J-865" style="edgeStyle=orthogonalEdgeStyle;rounded=0;orthogonalLoop=1;jettySize=auto;html=1;entryX=0;entryY=0.5;entryDx=0;entryDy=0;entryPerimeter=0;fontSize=14;" edge="1" parent="1" source="ImsG6VLnodtmkn8iDG3J-783" target="ImsG6VLnodtmkn8iDG3J-796">
          <mxGeometry relative="1" as="geometry" />
        </mxCell>
        <mxCell id="ImsG6VLnodtmkn8iDG3J-783" value="Users" style="strokeColor=#dddddd;shadow=1;strokeWidth=1;rounded=1;absoluteArcSize=1;arcSize=2;labelPosition=center;verticalLabelPosition=middle;align=center;verticalAlign=bottom;spacingLeft=0;fontColor=#999999;fontSize=12;whiteSpace=wrap;spacingBottom=2;" vertex="1" parent="1">
          <mxGeometry x="160" y="428.5" width="70" height="85" as="geometry" />
        </mxCell>
        <mxCell id="ImsG6VLnodtmkn8iDG3J-784" value="" style="sketch=0;dashed=0;connectable=0;html=1;fillColor=#757575;strokeColor=none;shape=mxgraph.gcp2.users;part=1;align=left;" vertex="1" parent="ImsG6VLnodtmkn8iDG3J-783">
          <mxGeometry x="0.5" width="50" height="31.5" relative="1" as="geometry">
            <mxPoint x="-25" y="19.25" as="offset" />
          </mxGeometry>
        </mxCell>
        <mxCell id="ImsG6VLnodtmkn8iDG3J-785" value="收入" style="rounded=1;absoluteArcSize=1;arcSize=2;html=1;strokeColor=none;gradientColor=none;shadow=0;dashed=0;strokeColor=none;fontSize=12;fontColor=#9E9E9E;align=left;verticalAlign=top;spacing=10;spacingTop=-4;fillColor=#F1F8E9;" vertex="1" parent="1">
          <mxGeometry x="120" y="561" width="120" height="110" as="geometry" />
        </mxCell>
        <mxCell id="ImsG6VLnodtmkn8iDG3J-864" style="edgeStyle=orthogonalEdgeStyle;rounded=0;orthogonalLoop=1;jettySize=auto;html=1;entryX=0;entryY=0.5;entryDx=0;entryDy=0;entryPerimeter=0;fontSize=14;" edge="1" parent="1" source="ImsG6VLnodtmkn8iDG3J-786" target="ImsG6VLnodtmkn8iDG3J-796">
          <mxGeometry relative="1" as="geometry" />
        </mxCell>
        <mxCell id="ImsG6VLnodtmkn8iDG3J-786" value="Users" style="strokeColor=#dddddd;shadow=1;strokeWidth=1;rounded=1;absoluteArcSize=1;arcSize=2;labelPosition=center;verticalLabelPosition=middle;align=center;verticalAlign=bottom;spacingLeft=0;fontColor=#999999;fontSize=12;whiteSpace=wrap;spacingBottom=2;" vertex="1" parent="1">
          <mxGeometry x="160" y="573.5" width="70" height="85" as="geometry" />
        </mxCell>
        <mxCell id="ImsG6VLnodtmkn8iDG3J-787" value="" style="sketch=0;dashed=0;connectable=0;html=1;fillColor=#757575;strokeColor=none;shape=mxgraph.gcp2.users;part=1;align=left;" vertex="1" parent="ImsG6VLnodtmkn8iDG3J-786">
          <mxGeometry x="0.5" width="50" height="31.5" relative="1" as="geometry">
            <mxPoint x="-25" y="19.25" as="offset" />
          </mxGeometry>
        </mxCell>
        <mxCell id="ImsG6VLnodtmkn8iDG3J-849" style="edgeStyle=orthogonalEdgeStyle;rounded=0;orthogonalLoop=1;jettySize=auto;html=1;exitX=0.5;exitY=0;exitDx=0;exitDy=0;exitPerimeter=0;fontSize=14;" edge="1" parent="1" source="ImsG6VLnodtmkn8iDG3J-796">
          <mxGeometry relative="1" as="geometry">
            <mxPoint x="335" y="240" as="targetPoint" />
          </mxGeometry>
        </mxCell>
        <mxCell id="ImsG6VLnodtmkn8iDG3J-868" style="edgeStyle=orthogonalEdgeStyle;rounded=0;orthogonalLoop=1;jettySize=auto;html=1;fontSize=14;" edge="1" parent="1" source="ImsG6VLnodtmkn8iDG3J-796" target="ImsG6VLnodtmkn8iDG3J-850">
          <mxGeometry relative="1" as="geometry" />
        </mxCell>
        <mxCell id="ImsG6VLnodtmkn8iDG3J-796" value="&lt;font style=&quot;font-size: 14px&quot;&gt;用户长期&lt;br&gt;生命周期标签&lt;/font&gt;" style="sketch=0;points=[[0,0,0],[0.25,0,0],[0.5,0,0],[0.75,0,0],[1,0,0],[1,0.25,0],[1,0.5,0],[1,0.75,0],[1,1,0],[0.75,1,0],[0.5,1,0],[0.25,1,0],[0,1,0],[0,0.75,0],[0,0.5,0],[0,0.25,0]];rounded=1;absoluteArcSize=1;arcSize=2;html=1;strokeColor=none;gradientColor=none;shadow=0;dashed=0;fontSize=12;fontColor=#9E9E9E;align=left;verticalAlign=top;spacing=10;spacingTop=-4;fillColor=#EFEBE9;" vertex="1" parent="1">
          <mxGeometry x="280" y="240" width="110" height="430" as="geometry" />
        </mxCell>
        <mxCell id="ImsG6VLnodtmkn8iDG3J-803" value="" style="edgeStyle=orthogonalEdgeStyle;rounded=0;orthogonalLoop=1;jettySize=auto;html=1;fontSize=14;" edge="1" parent="1" source="ImsG6VLnodtmkn8iDG3J-799" target="ImsG6VLnodtmkn8iDG3J-801">
          <mxGeometry relative="1" as="geometry" />
        </mxCell>
        <mxCell id="ImsG6VLnodtmkn8iDG3J-799" value="功能探索" style="strokeColor=#dddddd;shadow=1;strokeWidth=1;rounded=1;absoluteArcSize=1;arcSize=2;labelPosition=center;verticalLabelPosition=middle;align=center;verticalAlign=bottom;spacingLeft=0;fontColor=#999999;fontSize=12;whiteSpace=wrap;spacingBottom=2;" vertex="1" parent="1">
          <mxGeometry x="305" y="288" width="55" height="82" as="geometry" />
        </mxCell>
        <mxCell id="ImsG6VLnodtmkn8iDG3J-800" value="" style="sketch=0;dashed=0;connectable=0;html=1;fillColor=#757575;strokeColor=none;shape=mxgraph.gcp2.application;part=1;fontSize=14;align=left;" vertex="1" parent="ImsG6VLnodtmkn8iDG3J-799">
          <mxGeometry x="0.5" width="50" height="40" relative="1" as="geometry">
            <mxPoint x="-25" y="15" as="offset" />
          </mxGeometry>
        </mxCell>
        <mxCell id="ImsG6VLnodtmkn8iDG3J-806" value="" style="edgeStyle=orthogonalEdgeStyle;rounded=0;orthogonalLoop=1;jettySize=auto;html=1;fontSize=14;" edge="1" parent="1" source="ImsG6VLnodtmkn8iDG3J-801" target="ImsG6VLnodtmkn8iDG3J-804">
          <mxGeometry relative="1" as="geometry" />
        </mxCell>
        <mxCell id="ImsG6VLnodtmkn8iDG3J-801" value="内容探索" style="strokeColor=#dddddd;shadow=1;strokeWidth=1;rounded=1;absoluteArcSize=1;arcSize=2;labelPosition=center;verticalLabelPosition=middle;align=center;verticalAlign=bottom;spacingLeft=0;fontColor=#999999;fontSize=12;whiteSpace=wrap;spacingBottom=2;" vertex="1" parent="1">
          <mxGeometry x="305" y="384.5" width="55" height="82" as="geometry" />
        </mxCell>
        <mxCell id="ImsG6VLnodtmkn8iDG3J-802" value="" style="sketch=0;dashed=0;connectable=0;html=1;fillColor=#757575;strokeColor=none;shape=mxgraph.gcp2.application;part=1;fontSize=14;align=left;" vertex="1" parent="ImsG6VLnodtmkn8iDG3J-801">
          <mxGeometry x="0.5" width="50" height="40" relative="1" as="geometry">
            <mxPoint x="-25" y="15" as="offset" />
          </mxGeometry>
        </mxCell>
        <mxCell id="ImsG6VLnodtmkn8iDG3J-809" value="" style="edgeStyle=orthogonalEdgeStyle;rounded=0;orthogonalLoop=1;jettySize=auto;html=1;fontSize=14;" edge="1" parent="1" source="ImsG6VLnodtmkn8iDG3J-804" target="ImsG6VLnodtmkn8iDG3J-807">
          <mxGeometry relative="1" as="geometry" />
        </mxCell>
        <mxCell id="ImsG6VLnodtmkn8iDG3J-804" value="稳定消费" style="strokeColor=#dddddd;shadow=1;strokeWidth=1;rounded=1;absoluteArcSize=1;arcSize=2;labelPosition=center;verticalLabelPosition=middle;align=center;verticalAlign=bottom;spacingLeft=0;fontColor=#999999;fontSize=12;whiteSpace=wrap;spacingBottom=2;" vertex="1" parent="1">
          <mxGeometry x="305" y="490" width="55" height="77" as="geometry" />
        </mxCell>
        <mxCell id="ImsG6VLnodtmkn8iDG3J-805" value="" style="sketch=0;dashed=0;connectable=0;html=1;fillColor=#757575;strokeColor=none;shape=mxgraph.gcp2.application;part=1;fontSize=14;align=left;" vertex="1" parent="ImsG6VLnodtmkn8iDG3J-804">
          <mxGeometry x="0.5" width="50" height="40" relative="1" as="geometry">
            <mxPoint x="-25" y="15" as="offset" />
          </mxGeometry>
        </mxCell>
        <mxCell id="ImsG6VLnodtmkn8iDG3J-807" value="权益或流失" style="strokeColor=#dddddd;shadow=1;strokeWidth=1;rounded=1;absoluteArcSize=1;arcSize=2;labelPosition=center;verticalLabelPosition=middle;align=center;verticalAlign=bottom;spacingLeft=0;fontColor=#999999;fontSize=12;whiteSpace=wrap;spacingBottom=2;" vertex="1" parent="1">
          <mxGeometry x="305" y="580" width="55" height="82" as="geometry" />
        </mxCell>
        <mxCell id="ImsG6VLnodtmkn8iDG3J-808" value="" style="sketch=0;dashed=0;connectable=0;html=1;fillColor=#757575;strokeColor=none;shape=mxgraph.gcp2.application;part=1;fontSize=14;align=left;" vertex="1" parent="ImsG6VLnodtmkn8iDG3J-807">
          <mxGeometry x="0.5" width="50" height="40" relative="1" as="geometry">
            <mxPoint x="-25" y="15" as="offset" />
          </mxGeometry>
        </mxCell>
        <mxCell id="ImsG6VLnodtmkn8iDG3J-811" value="&lt;font style=&quot;font-size: 14px&quot;&gt;用户近期&lt;br&gt;活跃的强度&lt;br&gt;标签&lt;br&gt;&lt;br&gt;&lt;br&gt;&lt;/font&gt;" style="sketch=0;points=[[0,0,0],[0.25,0,0],[0.5,0,0],[0.75,0,0],[1,0,0],[1,0.25,0],[1,0.5,0],[1,0.75,0],[1,1,0],[0.75,1,0],[0.5,1,0],[0.25,1,0],[0,1,0],[0,0.75,0],[0,0.5,0],[0,0.25,0]];rounded=1;absoluteArcSize=1;arcSize=2;html=1;strokeColor=none;gradientColor=none;shadow=0;dashed=0;fontSize=12;fontColor=#9E9E9E;align=left;verticalAlign=top;spacing=10;spacingTop=-4;fillColor=#EFEBE9;" vertex="1" parent="1">
          <mxGeometry x="410" y="247.5" width="530" height="62.5" as="geometry" />
        </mxCell>
        <mxCell id="ImsG6VLnodtmkn8iDG3J-815" value="" style="strokeColor=#dddddd;shadow=1;strokeWidth=1;rounded=1;absoluteArcSize=1;arcSize=2;fontSize=14;align=left;" vertex="1" parent="1">
          <mxGeometry x="493" y="255" width="87" height="40" as="geometry" />
        </mxCell>
        <mxCell id="ImsG6VLnodtmkn8iDG3J-816" value="小说" style="sketch=0;dashed=0;connectable=0;html=1;fillColor=#5184F3;strokeColor=none;shape=mxgraph.gcp2.hexIcon;prIcon=cloud_datalab;part=1;labelPosition=right;verticalLabelPosition=middle;align=left;verticalAlign=middle;spacingLeft=5;fontColor=#999999;fontSize=12;" vertex="1" parent="ImsG6VLnodtmkn8iDG3J-815">
          <mxGeometry y="0.5" width="44" height="39" relative="1" as="geometry">
            <mxPoint x="5" y="-19.5" as="offset" />
          </mxGeometry>
        </mxCell>
        <mxCell id="ImsG6VLnodtmkn8iDG3J-817" value="" style="strokeColor=#dddddd;shadow=1;strokeWidth=1;rounded=1;absoluteArcSize=1;arcSize=2;fontSize=14;align=left;" vertex="1" parent="1">
          <mxGeometry x="823" y="255" width="87" height="40" as="geometry" />
        </mxCell>
        <mxCell id="ImsG6VLnodtmkn8iDG3J-818" value="新闻" style="sketch=0;dashed=0;connectable=0;html=1;fillColor=#5184F3;strokeColor=none;shape=mxgraph.gcp2.hexIcon;prIcon=cloud_datalab;part=1;labelPosition=right;verticalLabelPosition=middle;align=left;verticalAlign=middle;spacingLeft=5;fontColor=#999999;fontSize=12;" vertex="1" parent="ImsG6VLnodtmkn8iDG3J-817">
          <mxGeometry y="0.5" width="44" height="39" relative="1" as="geometry">
            <mxPoint x="5" y="-19.5" as="offset" />
          </mxGeometry>
        </mxCell>
        <mxCell id="ImsG6VLnodtmkn8iDG3J-819" value="" style="strokeColor=#dddddd;shadow=1;strokeWidth=1;rounded=1;absoluteArcSize=1;arcSize=2;fontSize=14;align=left;" vertex="1" parent="1">
          <mxGeometry x="712" y="255" width="87" height="40" as="geometry" />
        </mxCell>
        <mxCell id="ImsG6VLnodtmkn8iDG3J-820" value="信息流" style="sketch=0;dashed=0;connectable=0;html=1;fillColor=#5184F3;strokeColor=none;shape=mxgraph.gcp2.hexIcon;prIcon=cloud_datalab;part=1;labelPosition=right;verticalLabelPosition=middle;align=left;verticalAlign=middle;spacingLeft=5;fontColor=#999999;fontSize=12;" vertex="1" parent="ImsG6VLnodtmkn8iDG3J-819">
          <mxGeometry y="0.5" width="44" height="39" relative="1" as="geometry">
            <mxPoint x="5" y="-19.5" as="offset" />
          </mxGeometry>
        </mxCell>
        <mxCell id="ImsG6VLnodtmkn8iDG3J-821" value="" style="strokeColor=#dddddd;shadow=1;strokeWidth=1;rounded=1;absoluteArcSize=1;arcSize=2;fontSize=14;align=left;" vertex="1" parent="1">
          <mxGeometry x="601" y="255" width="87" height="40" as="geometry" />
        </mxCell>
        <mxCell id="ImsG6VLnodtmkn8iDG3J-822" value="搜索" style="sketch=0;dashed=0;connectable=0;html=1;fillColor=#5184F3;strokeColor=none;shape=mxgraph.gcp2.hexIcon;prIcon=cloud_datalab;part=1;labelPosition=right;verticalLabelPosition=middle;align=left;verticalAlign=middle;spacingLeft=5;fontColor=#999999;fontSize=12;" vertex="1" parent="ImsG6VLnodtmkn8iDG3J-821">
          <mxGeometry y="0.5" width="44" height="39" relative="1" as="geometry">
            <mxPoint x="5" y="-19.5" as="offset" />
          </mxGeometry>
        </mxCell>
        <mxCell id="ImsG6VLnodtmkn8iDG3J-830" value="&lt;font style=&quot;font-size: 14px&quot;&gt;用户敏感性&lt;br&gt;标签&lt;br&gt;&lt;/font&gt;" style="sketch=0;points=[[0,0,0],[0.25,0,0],[0.5,0,0],[0.75,0,0],[1,0,0],[1,0.25,0],[1,0.5,0],[1,0.75,0],[1,1,0],[0.75,1,0],[0.5,1,0],[0.25,1,0],[0,1,0],[0,0.75,0],[0,0.5,0],[0,0.25,0]];rounded=1;absoluteArcSize=1;arcSize=2;html=1;strokeColor=none;gradientColor=none;shadow=0;dashed=0;fontSize=12;fontColor=#9E9E9E;align=left;verticalAlign=top;spacing=10;spacingTop=-4;fillColor=#EFEBE9;" vertex="1" parent="1">
          <mxGeometry x="410" y="310.5" width="530" height="62.5" as="geometry" />
        </mxCell>
        <mxCell id="ImsG6VLnodtmkn8iDG3J-831" value="" style="strokeColor=#dddddd;shadow=1;strokeWidth=1;rounded=1;absoluteArcSize=1;arcSize=2;fontSize=14;align=left;" vertex="1" parent="1">
          <mxGeometry x="493" y="317.5" width="87" height="40" as="geometry" />
        </mxCell>
        <mxCell id="ImsG6VLnodtmkn8iDG3J-832" value="小说" style="sketch=0;dashed=0;connectable=0;html=1;fillColor=#5184F3;strokeColor=none;shape=mxgraph.gcp2.hexIcon;prIcon=cloud_datalab;part=1;labelPosition=right;verticalLabelPosition=middle;align=left;verticalAlign=middle;spacingLeft=5;fontColor=#999999;fontSize=12;" vertex="1" parent="ImsG6VLnodtmkn8iDG3J-831">
          <mxGeometry y="0.5" width="44" height="39" relative="1" as="geometry">
            <mxPoint x="5" y="-19.5" as="offset" />
          </mxGeometry>
        </mxCell>
        <mxCell id="ImsG6VLnodtmkn8iDG3J-833" value="" style="strokeColor=#dddddd;shadow=1;strokeWidth=1;rounded=1;absoluteArcSize=1;arcSize=2;fontSize=14;align=left;" vertex="1" parent="1">
          <mxGeometry x="825" y="317.5" width="87" height="40" as="geometry" />
        </mxCell>
        <mxCell id="ImsG6VLnodtmkn8iDG3J-834" value="新闻" style="sketch=0;dashed=0;connectable=0;html=1;fillColor=#5184F3;strokeColor=none;shape=mxgraph.gcp2.hexIcon;prIcon=cloud_datalab;part=1;labelPosition=right;verticalLabelPosition=middle;align=left;verticalAlign=middle;spacingLeft=5;fontColor=#999999;fontSize=12;" vertex="1" parent="ImsG6VLnodtmkn8iDG3J-833">
          <mxGeometry y="0.5" width="44" height="39" relative="1" as="geometry">
            <mxPoint x="5" y="-19.5" as="offset" />
          </mxGeometry>
        </mxCell>
        <mxCell id="ImsG6VLnodtmkn8iDG3J-835" value="" style="strokeColor=#dddddd;shadow=1;strokeWidth=1;rounded=1;absoluteArcSize=1;arcSize=2;fontSize=14;align=left;" vertex="1" parent="1">
          <mxGeometry x="712" y="317.5" width="87" height="40" as="geometry" />
        </mxCell>
        <mxCell id="ImsG6VLnodtmkn8iDG3J-836" value="信息流" style="sketch=0;dashed=0;connectable=0;html=1;fillColor=#5184F3;strokeColor=none;shape=mxgraph.gcp2.hexIcon;prIcon=cloud_datalab;part=1;labelPosition=right;verticalLabelPosition=middle;align=left;verticalAlign=middle;spacingLeft=5;fontColor=#999999;fontSize=12;" vertex="1" parent="ImsG6VLnodtmkn8iDG3J-835">
          <mxGeometry y="0.5" width="44" height="39" relative="1" as="geometry">
            <mxPoint x="5" y="-19.5" as="offset" />
          </mxGeometry>
        </mxCell>
        <mxCell id="ImsG6VLnodtmkn8iDG3J-837" value="" style="strokeColor=#dddddd;shadow=1;strokeWidth=1;rounded=1;absoluteArcSize=1;arcSize=2;fontSize=14;align=left;" vertex="1" parent="1">
          <mxGeometry x="603" y="317.5" width="87" height="40" as="geometry" />
        </mxCell>
        <mxCell id="ImsG6VLnodtmkn8iDG3J-838" value="搜索" style="sketch=0;dashed=0;connectable=0;html=1;fillColor=#5184F3;strokeColor=none;shape=mxgraph.gcp2.hexIcon;prIcon=cloud_datalab;part=1;labelPosition=right;verticalLabelPosition=middle;align=left;verticalAlign=middle;spacingLeft=5;fontColor=#999999;fontSize=12;" vertex="1" parent="ImsG6VLnodtmkn8iDG3J-837">
          <mxGeometry y="0.5" width="44" height="39" relative="1" as="geometry">
            <mxPoint x="5" y="-19.5" as="offset" />
          </mxGeometry>
        </mxCell>
        <mxCell id="ImsG6VLnodtmkn8iDG3J-840" value="&lt;font style=&quot;font-size: 14px&quot;&gt;兴趣标签&lt;br&gt;当天/近期/&lt;br&gt;历史&lt;br&gt;&lt;/font&gt;" style="sketch=0;points=[[0,0,0],[0.25,0,0],[0.5,0,0],[0.75,0,0],[1,0,0],[1,0.25,0],[1,0.5,0],[1,0.75,0],[1,1,0],[0.75,1,0],[0.5,1,0],[0.25,1,0],[0,1,0],[0,0.75,0],[0,0.5,0],[0,0.25,0]];rounded=1;absoluteArcSize=1;arcSize=2;html=1;strokeColor=none;gradientColor=none;shadow=0;dashed=0;fontSize=12;fontColor=#9E9E9E;align=left;verticalAlign=top;spacing=10;spacingTop=-4;fillColor=#EFEBE9;" vertex="1" parent="1">
          <mxGeometry x="410" y="373" width="530" height="62.5" as="geometry" />
        </mxCell>
        <mxCell id="ImsG6VLnodtmkn8iDG3J-841" value="" style="strokeColor=#dddddd;shadow=1;strokeWidth=1;rounded=1;absoluteArcSize=1;arcSize=2;fontSize=14;align=left;" vertex="1" parent="1">
          <mxGeometry x="494" y="384.5" width="87" height="40" as="geometry" />
        </mxCell>
        <mxCell id="ImsG6VLnodtmkn8iDG3J-842" value="小说" style="sketch=0;dashed=0;connectable=0;html=1;fillColor=#5184F3;strokeColor=none;shape=mxgraph.gcp2.hexIcon;prIcon=cloud_datalab;part=1;labelPosition=right;verticalLabelPosition=middle;align=left;verticalAlign=middle;spacingLeft=5;fontColor=#999999;fontSize=12;" vertex="1" parent="ImsG6VLnodtmkn8iDG3J-841">
          <mxGeometry y="0.5" width="44" height="39" relative="1" as="geometry">
            <mxPoint x="5" y="-19.5" as="offset" />
          </mxGeometry>
        </mxCell>
        <mxCell id="ImsG6VLnodtmkn8iDG3J-843" value="" style="strokeColor=#dddddd;shadow=1;strokeWidth=1;rounded=1;absoluteArcSize=1;arcSize=2;fontSize=14;align=left;" vertex="1" parent="1">
          <mxGeometry x="826" y="384.5" width="87" height="40" as="geometry" />
        </mxCell>
        <mxCell id="ImsG6VLnodtmkn8iDG3J-844" value="新闻" style="sketch=0;dashed=0;connectable=0;html=1;fillColor=#5184F3;strokeColor=none;shape=mxgraph.gcp2.hexIcon;prIcon=cloud_datalab;part=1;labelPosition=right;verticalLabelPosition=middle;align=left;verticalAlign=middle;spacingLeft=5;fontColor=#999999;fontSize=12;" vertex="1" parent="ImsG6VLnodtmkn8iDG3J-843">
          <mxGeometry y="0.5" width="44" height="39" relative="1" as="geometry">
            <mxPoint x="5" y="-19.5" as="offset" />
          </mxGeometry>
        </mxCell>
        <mxCell id="ImsG6VLnodtmkn8iDG3J-845" value="" style="strokeColor=#dddddd;shadow=1;strokeWidth=1;rounded=1;absoluteArcSize=1;arcSize=2;fontSize=14;align=left;" vertex="1" parent="1">
          <mxGeometry x="713" y="384.5" width="87" height="40" as="geometry" />
        </mxCell>
        <mxCell id="ImsG6VLnodtmkn8iDG3J-846" value="信息流" style="sketch=0;dashed=0;connectable=0;html=1;fillColor=#5184F3;strokeColor=none;shape=mxgraph.gcp2.hexIcon;prIcon=cloud_datalab;part=1;labelPosition=right;verticalLabelPosition=middle;align=left;verticalAlign=middle;spacingLeft=5;fontColor=#999999;fontSize=12;" vertex="1" parent="ImsG6VLnodtmkn8iDG3J-845">
          <mxGeometry y="0.5" width="44" height="39" relative="1" as="geometry">
            <mxPoint x="5" y="-19.5" as="offset" />
          </mxGeometry>
        </mxCell>
        <mxCell id="ImsG6VLnodtmkn8iDG3J-847" value="" style="strokeColor=#dddddd;shadow=1;strokeWidth=1;rounded=1;absoluteArcSize=1;arcSize=2;fontSize=14;align=left;" vertex="1" parent="1">
          <mxGeometry x="604" y="384.5" width="87" height="40" as="geometry" />
        </mxCell>
        <mxCell id="ImsG6VLnodtmkn8iDG3J-848" value="搜索" style="sketch=0;dashed=0;connectable=0;html=1;fillColor=#5184F3;strokeColor=none;shape=mxgraph.gcp2.hexIcon;prIcon=cloud_datalab;part=1;labelPosition=right;verticalLabelPosition=middle;align=left;verticalAlign=middle;spacingLeft=5;fontColor=#999999;fontSize=12;" vertex="1" parent="ImsG6VLnodtmkn8iDG3J-847">
          <mxGeometry y="0.5" width="44" height="39" relative="1" as="geometry">
            <mxPoint x="5" y="-19.5" as="offset" />
          </mxGeometry>
        </mxCell>
        <mxCell id="ImsG6VLnodtmkn8iDG3J-850" value="&lt;font style=&quot;font-size: 14px&quot;&gt;统一标签层&lt;br&gt;&lt;/font&gt;" style="sketch=0;points=[[0,0,0],[0.25,0,0],[0.5,0,0],[0.75,0,0],[1,0,0],[1,0.25,0],[1,0.5,0],[1,0.75,0],[1,1,0],[0.75,1,0],[0.5,1,0],[0.25,1,0],[0,1,0],[0,0.75,0],[0,0.5,0],[0,0.25,0]];rounded=1;absoluteArcSize=1;arcSize=2;html=1;strokeColor=none;gradientColor=none;shadow=0;dashed=0;fontSize=12;fontColor=#9E9E9E;align=left;verticalAlign=top;spacing=10;spacingTop=-4;fillColor=#EFEBE9;" vertex="1" parent="1">
          <mxGeometry x="280" y="710" width="678" height="60" as="geometry" />
        </mxCell>
        <mxCell id="ImsG6VLnodtmkn8iDG3J-851" value="" style="strokeColor=#dddddd;shadow=1;strokeWidth=1;rounded=1;absoluteArcSize=1;arcSize=2;fontSize=14;align=left;" vertex="1" parent="1">
          <mxGeometry x="430" y="720" width="140" height="40" as="geometry" />
        </mxCell>
        <mxCell id="ImsG6VLnodtmkn8iDG3J-852" value="交叉渗透画像" style="sketch=0;dashed=0;connectable=0;html=1;fillColor=#5184F3;strokeColor=none;shape=mxgraph.gcp2.hexIcon;prIcon=cloud_datalab;part=1;labelPosition=right;verticalLabelPosition=middle;align=left;verticalAlign=middle;spacingLeft=5;fontColor=#999999;fontSize=12;" vertex="1" parent="ImsG6VLnodtmkn8iDG3J-851">
          <mxGeometry y="0.5" width="44" height="39" relative="1" as="geometry">
            <mxPoint x="5" y="-19.5" as="offset" />
          </mxGeometry>
        </mxCell>
        <mxCell id="ImsG6VLnodtmkn8iDG3J-853" value="" style="strokeColor=#dddddd;shadow=1;strokeWidth=1;rounded=1;absoluteArcSize=1;arcSize=2;fontSize=14;align=left;" vertex="1" parent="1">
          <mxGeometry x="770" y="720" width="150" height="40" as="geometry" />
        </mxCell>
        <mxCell id="ImsG6VLnodtmkn8iDG3J-854" value="实时画像" style="sketch=0;dashed=0;connectable=0;html=1;fillColor=#5184F3;strokeColor=none;shape=mxgraph.gcp2.hexIcon;prIcon=cloud_datalab;part=1;labelPosition=right;verticalLabelPosition=middle;align=left;verticalAlign=middle;spacingLeft=5;fontColor=#999999;fontSize=12;" vertex="1" parent="ImsG6VLnodtmkn8iDG3J-853">
          <mxGeometry y="0.5" width="44" height="39" relative="1" as="geometry">
            <mxPoint x="5" y="-19.5" as="offset" />
          </mxGeometry>
        </mxCell>
        <mxCell id="ImsG6VLnodtmkn8iDG3J-855" value="" style="strokeColor=#dddddd;shadow=1;strokeWidth=1;rounded=1;absoluteArcSize=1;arcSize=2;fontSize=14;align=left;" vertex="1" parent="1">
          <mxGeometry x="588" y="720" width="160" height="40" as="geometry" />
        </mxCell>
        <mxCell id="ImsG6VLnodtmkn8iDG3J-856" value="Engagement画像" style="sketch=0;dashed=0;connectable=0;html=1;fillColor=#5184F3;strokeColor=none;shape=mxgraph.gcp2.hexIcon;prIcon=cloud_datalab;part=1;labelPosition=right;verticalLabelPosition=middle;align=left;verticalAlign=middle;spacingLeft=5;fontColor=#999999;fontSize=12;" vertex="1" parent="ImsG6VLnodtmkn8iDG3J-855">
          <mxGeometry y="0.5" width="44" height="39" relative="1" as="geometry">
            <mxPoint x="5" y="-19.5" as="offset" />
          </mxGeometry>
        </mxCell>
        <mxCell id="ImsG6VLnodtmkn8iDG3J-867" style="edgeStyle=orthogonalEdgeStyle;rounded=0;orthogonalLoop=1;jettySize=auto;html=1;fontSize=14;" edge="1" parent="1" source="ImsG6VLnodtmkn8iDG3J-858" target="ImsG6VLnodtmkn8iDG3J-850">
          <mxGeometry relative="1" as="geometry" />
        </mxCell>
        <mxCell id="ImsG6VLnodtmkn8iDG3J-858" value="&lt;font style=&quot;font-size: 14px&quot;&gt;其他标签&lt;br&gt;&lt;/font&gt;" style="sketch=0;points=[[0,0,0],[0.25,0,0],[0.5,0,0],[0.75,0,0],[1,0,0],[1,0.25,0],[1,0.5,0],[1,0.75,0],[1,1,0],[0.75,1,0],[0.5,1,0],[0.25,1,0],[0,1,0],[0,0.75,0],[0,0.5,0],[0,0.25,0]];rounded=1;absoluteArcSize=1;arcSize=2;html=1;strokeColor=none;gradientColor=none;shadow=0;dashed=0;fontSize=12;fontColor=#9E9E9E;align=left;verticalAlign=top;spacing=10;spacingTop=-4;fillColor=#EFEBE9;" vertex="1" parent="1">
          <mxGeometry x="410" y="435.5" width="530" height="62.5" as="geometry" />
        </mxCell>
        <mxCell id="ImsG6VLnodtmkn8iDG3J-869" value="" style="strokeColor=#dddddd;shadow=1;strokeWidth=1;rounded=1;absoluteArcSize=1;arcSize=2;fontSize=14;align=left;" vertex="1" parent="1">
          <mxGeometry x="495" y="439.5" width="87" height="40" as="geometry" />
        </mxCell>
        <mxCell id="ImsG6VLnodtmkn8iDG3J-870" value="小说" style="sketch=0;dashed=0;connectable=0;html=1;fillColor=#5184F3;strokeColor=none;shape=mxgraph.gcp2.hexIcon;prIcon=cloud_datalab;part=1;labelPosition=right;verticalLabelPosition=middle;align=left;verticalAlign=middle;spacingLeft=5;fontColor=#999999;fontSize=12;" vertex="1" parent="ImsG6VLnodtmkn8iDG3J-869">
          <mxGeometry y="0.5" width="44" height="39" relative="1" as="geometry">
            <mxPoint x="5" y="-19.5" as="offset" />
          </mxGeometry>
        </mxCell>
        <mxCell id="ImsG6VLnodtmkn8iDG3J-871" value="" style="strokeColor=#dddddd;shadow=1;strokeWidth=1;rounded=1;absoluteArcSize=1;arcSize=2;fontSize=14;align=left;" vertex="1" parent="1">
          <mxGeometry x="827" y="439.5" width="87" height="40" as="geometry" />
        </mxCell>
        <mxCell id="ImsG6VLnodtmkn8iDG3J-872" value="新闻" style="sketch=0;dashed=0;connectable=0;html=1;fillColor=#5184F3;strokeColor=none;shape=mxgraph.gcp2.hexIcon;prIcon=cloud_datalab;part=1;labelPosition=right;verticalLabelPosition=middle;align=left;verticalAlign=middle;spacingLeft=5;fontColor=#999999;fontSize=12;" vertex="1" parent="ImsG6VLnodtmkn8iDG3J-871">
          <mxGeometry y="0.5" width="44" height="39" relative="1" as="geometry">
            <mxPoint x="5" y="-19.5" as="offset" />
          </mxGeometry>
        </mxCell>
        <mxCell id="ImsG6VLnodtmkn8iDG3J-873" value="" style="strokeColor=#dddddd;shadow=1;strokeWidth=1;rounded=1;absoluteArcSize=1;arcSize=2;fontSize=14;align=left;" vertex="1" parent="1">
          <mxGeometry x="714" y="439.5" width="87" height="40" as="geometry" />
        </mxCell>
        <mxCell id="ImsG6VLnodtmkn8iDG3J-874" value="信息流" style="sketch=0;dashed=0;connectable=0;html=1;fillColor=#5184F3;strokeColor=none;shape=mxgraph.gcp2.hexIcon;prIcon=cloud_datalab;part=1;labelPosition=right;verticalLabelPosition=middle;align=left;verticalAlign=middle;spacingLeft=5;fontColor=#999999;fontSize=12;" vertex="1" parent="ImsG6VLnodtmkn8iDG3J-873">
          <mxGeometry y="0.5" width="44" height="39" relative="1" as="geometry">
            <mxPoint x="5" y="-19.5" as="offset" />
          </mxGeometry>
        </mxCell>
        <mxCell id="ImsG6VLnodtmkn8iDG3J-875" value="" style="strokeColor=#dddddd;shadow=1;strokeWidth=1;rounded=1;absoluteArcSize=1;arcSize=2;fontSize=14;align=left;" vertex="1" parent="1">
          <mxGeometry x="605" y="439.5" width="87" height="40" as="geometry" />
        </mxCell>
        <mxCell id="ImsG6VLnodtmkn8iDG3J-876" value="搜索" style="sketch=0;dashed=0;connectable=0;html=1;fillColor=#5184F3;strokeColor=none;shape=mxgraph.gcp2.hexIcon;prIcon=cloud_datalab;part=1;labelPosition=right;verticalLabelPosition=middle;align=left;verticalAlign=middle;spacingLeft=5;fontColor=#999999;fontSize=12;" vertex="1" parent="ImsG6VLnodtmkn8iDG3J-875">
          <mxGeometry y="0.5" width="44" height="39" relative="1" as="geometry">
            <mxPoint x="5" y="-19.5" as="offset" />
          </mxGeometry>
        </mxCell>
      </root>
    </mxGraphModel>
  </diagram>
</mxfile>
